# xmcd
#
# Track frame offsets: 
#        150
#        12250
#        25245
#        39975
#        52030
#        69585
#
# Disc length: 938 seconds
#
# Revision: 0
# Processed by: cddbd v1.5.1PL2 Copyright (c) Steve Scherf et al.
# Submitted via: ExactAudioCopy v0.95b3
#
DISCID=4703a806
DTITLE=Various Artist - Deck The Halls: 2003 Christmas From Compadre Records
DYEAR=2003
DGENRE=Christmas/Holiday
TTITLE0=Billy Joe Shaver with Flaco Jimenez - Feliz Navidad
TTITLE1=Suzy Bogguss with Delbert McClinton - Baby It's Cold Outside
TTITLE2=Billy Ray Reynolds - The Night Before Christmas
TTITLE3=Suzy Bogguss - Two-Step 'Round The Christmas Tree
TTITLE4=Billy Joe Shaver - Merry Christmas To You
TTITLE5=Suzy Bogguss - Holiday Tag
EXTD=
EXTT0=
EXTT1=
EXTT2=
EXTT3=
EXTT4=
EXTT5=
PLAYORDER=
